<?xml version="1.0" standalone="no"?>
<!DOCTYPE svg PUBLIC "-//W3C//DTD SVG 20010904//EN"
 "http://www.w3.org/TR/2001/REC-SVG-20010904/DTD/svg10.dtd">
<svg version="1.0" xmlns="http://www.w3.org/2000/svg"
 width="512.000000pt" height="512.000000pt" viewBox="0 0 512.000000 512.000000"
 preserveAspectRatio="xMidYMid meet">
<metadata>
Created by potrace 1.14, written by Peter Selinger 2001-2017
</metadata>
<g transform="translate(0.000000,512.000000) scale(0.100000,-0.100000)"
fill="#000000" stroke="none">
<path d="M5115 2565 c0 -935 1 -1319 2 -853 2 465 2 1230 0 1700 -1 469 -2 88
-2 -847z"/>
<path d="M955 3876 c-51 -22 -97 -68 -121 -121 -23 -48 -24 -59 -24 -293 0
-264 4 -287 55 -310 57 -26 111 -8 140 48 12 23 15 73 15 248 0 156 3 221 12
230 9 9 76 12 241 12 l229 0 29 29 c23 23 29 38 29 71 0 33 -6 48 -29 71 l-29
29 -259 0 c-190 -1 -266 -4 -288 -14z"/>
<path d="M3589 3861 c-23 -23 -29 -38 -29 -71 0 -33 6 -48 29 -71 29 -29 31
-29 143 -30 62 0 165 -1 228 -1 63 0 121 -5 128 -11 9 -7 12 -65 12 -229 0
-234 4 -259 52 -292 45 -32 123 -11 146 39 8 18 12 101 12 268 0 233 -1 244
-24 292 -25 54 -71 100 -123 122 -24 10 -96 13 -288 13 l-257 0 -29 -29z"/>
<path d="M1284 3470 c-12 -4 -31 -21 -43 -36 l-21 -27 0 -848 0 -847 26 -31
c50 -59 140 -46 170 24 22 53 21 1673 -1 1715 -25 48 -82 70 -131 50z"/>
<path d="M1694 3470 c-12 -4 -31 -21 -43 -36 -21 -27 -21 -30 -21 -595 0 -419
3 -575 12 -594 23 -50 101 -71 146 -39 53 37 52 30 52 629 0 610 1 598 -60
630 -32 17 -54 18 -86 5z"/>
<path d="M2104 3470 c-12 -4 -31 -21 -43 -36 l-21 -27 0 -848 0 -847 26 -31
c32 -38 80 -49 123 -27 64 34 61 -9 61 906 0 912 3 873 -60 905 -32 17 -54 18
-86 5z"/>
<path d="M2514 3470 c-12 -4 -31 -21 -43 -36 -21 -27 -21 -30 -21 -596 0 -514
2 -573 17 -598 42 -71 139 -66 178 10 23 44 22 1127 0 1170 -25 48 -82 70
-131 50z"/>
<path d="M2924 3470 c-12 -4 -31 -21 -43 -36 -21 -27 -21 -30 -21 -596 0 -514
2 -573 17 -598 42 -71 139 -66 178 10 23 44 22 1127 0 1170 -25 48 -82 70
-131 50z"/>
<path d="M3334 3470 c-12 -4 -31 -21 -43 -36 -21 -27 -21 -30 -21 -596 0 -514
2 -573 17 -598 33 -57 104 -66 155 -21 l33 29 3 571 c3 628 4 614 -58 646 -32
17 -54 18 -86 5z"/>
<path d="M3744 3470 c-12 -4 -31 -21 -43 -36 l-21 -27 0 -848 0 -847 26 -31
c32 -38 80 -49 123 -27 64 34 61 -9 61 906 0 912 3 873 -60 905 -32 17 -54 18
-86 5z"/>
<path d="M861 1966 c-47 -26 -50 -44 -51 -306 0 -236 1 -247 24 -295 25 -54
71 -100 123 -122 24 -10 96 -13 288 -13 l257 0 29 29 c41 41 41 101 0 142
l-29 29 -229 0 c-165 0 -232 3 -241 12 -9 9 -12 74 -12 230 0 234 -4 259 -52
292 -27 19 -74 20 -107 2z"/>
<path d="M4152 1964 c-48 -33 -52 -58 -52 -292 0 -164 -3 -222 -12 -230 -8 -6
-69 -10 -143 -10 -338 0 -323 1 -356 -31 -23 -23 -29 -38 -29 -71 0 -33 6 -48
29 -71 l29 -29 257 0 c192 0 264 3 288 13 52 22 98 68 123 122 23 48 24 59 24
292 0 167 -4 250 -12 268 -23 50 -101 71 -146 39z"/>
<path d="M1694 1960 c-12 -4 -31 -21 -43 -36 -18 -23 -21 -40 -21 -120 0 -85
2 -95 26 -123 50 -59 140 -46 170 24 19 47 18 168 -2 206 -8 17 -30 37 -49 45
-39 16 -51 16 -81 4z"/>
<path d="M2503 1950 c-46 -27 -53 -48 -53 -149 0 -81 2 -92 26 -120 32 -38 80
-49 123 -27 45 24 61 63 61 151 0 87 -16 127 -60 150 -38 20 -58 19 -97 -5z"/>
<path d="M2913 1950 c-46 -27 -53 -48 -53 -149 0 -81 2 -92 26 -120 32 -38 80
-49 123 -27 45 24 61 63 61 151 0 87 -16 127 -60 150 -38 20 -58 19 -97 -5z"/>
<path d="M3323 1950 c-46 -27 -53 -48 -53 -149 0 -81 2 -92 26 -120 32 -38 80
-49 123 -27 45 24 61 63 61 151 0 87 -16 127 -60 150 -38 20 -58 19 -97 -5z"/>
</g>
</svg>
