<?xml version="1.0" standalone="no"?>
<!DOCTYPE svg PUBLIC "-//W3C//DTD SVG 20010904//EN"
 "http://www.w3.org/TR/2001/REC-SVG-20010904/DTD/svg10.dtd">
<svg version="1.0" xmlns="http://www.w3.org/2000/svg"
 width="512.000000pt" height="512.000000pt" viewBox="0 0 512.000000 512.000000"
 preserveAspectRatio="xMidYMid meet">
<metadata>
Created by potrace 1.14, written by Peter Selinger 2001-2017
</metadata>
<g transform="translate(0.000000,512.000000) scale(0.100000,-0.100000)"
fill="#000000" stroke="none">
<path d="M710 3715 l0 -695 695 0 695 0 0 695 0 695 -695 0 -695 0 0 -695z
m1150 5 l0 -460 -460 0 -460 0 0 453 c0 250 3 457 7 460 3 4 210 7 460 7 l453
0 0 -460z"/>
<path d="M1170 3715 l0 -235 235 0 235 0 0 235 0 235 -235 0 -235 0 0 -235z"/>
<path d="M2330 3945 l0 -465 115 0 115 0 0 -225 0 -225 -115 0 -114 0 -3 -117
-3 -118 -112 -3 -112 -3 -3 -112 -3 -112 -112 -3 -113 -3 0 116 0 115 -235 0
-235 0 0 -115 0 -115 -110 0 -110 0 0 115 0 115 -235 0 -235 0 0 -230 0 -230
350 0 350 0 0 115 0 115 225 0 225 0 0 -115 0 -115 235 0 235 0 0 -235 0 -235
230 0 230 0 0 -110 0 -110 -230 0 -230 0 0 -120 0 -120 115 0 115 0 0 -110 0
-110 -115 0 -115 0 0 -235 0 -235 115 0 115 0 0 230 0 230 115 0 115 0 0 -230
0 -230 235 0 235 0 0 230 0 230 110 0 110 0 0 -230 0 -230 120 0 120 0 -2 233
-3 232 -112 3 -113 3 0 109 0 110 230 0 230 0 0 -345 0 -345 230 0 230 0 0
235 0 235 -115 0 -115 0 0 115 0 115 -115 0 -115 0 0 115 0 115 -235 0 -235 0
0 -115 0 -115 -110 0 -109 0 -3 112 -3 113 -112 3 -113 3 0 109 0 110 343 2
342 3 3 233 2 232 -230 0 -230 0 0 230 0 230 -350 0 -350 0 0 115 0 115 115 0
115 0 0 235 0 235 -115 0 -115 0 0 110 0 110 115 0 115 0 0 235 0 235 -115 0
-115 0 0 115 0 115 -115 0 -115 0 0 -465z m230 -1270 l0 -115 115 0 115 0 0
-115 0 -115 -230 0 -230 0 0 230 0 230 115 0 115 0 0 -115z m690 -460 l0 -115
-115 0 -115 0 0 -115 0 -115 -115 0 -115 0 0 223 c0 123 3 227 7 230 3 4 107
7 230 7 l223 0 0 -115z m-230 -700 l0 -115 115 0 115 0 0 -110 0 -110 -230 0
-230 0 0 225 0 225 115 0 115 0 0 -115z"/>
<path d="M3020 3715 l0 -695 695 0 695 0 0 695 0 695 -695 0 -695 0 0 -695z
m1160 5 l0 -460 -460 0 -460 0 0 460 0 460 460 0 460 0 0 -460z"/>
<path d="M3482 3718 l3 -233 233 -3 232 -2 0 235 0 235 -235 0 -235 0 2 -232z"/>
<path d="M3480 2675 l0 -115 235 0 235 0 0 -115 0 -115 230 0 230 0 0 230 0
230 -465 0 -465 0 0 -115z"/>
<path d="M710 1405 l0 -695 695 0 695 0 0 695 0 695 -695 0 -695 0 0 -695z
m1150 -5 l0 -460 -457 2 -458 3 -3 458 -2 457 460 0 460 0 0 -460z"/>
<path d="M1170 1405 l0 -235 235 0 235 0 0 235 0 235 -235 0 -235 0 0 -235z"/>
<path d="M3950 1980 l0 -120 115 0 115 0 0 -115 0 -115 115 0 115 0 0 235 0
235 -230 0 -230 0 0 -120z"/>
</g>
</svg>
