<?xml version="1.0" standalone="no"?>
<!DOCTYPE svg PUBLIC "-//W3C//DTD SVG 20010904//EN"
 "http://www.w3.org/TR/2001/REC-SVG-20010904/DTD/svg10.dtd">
<svg version="1.0" xmlns="http://www.w3.org/2000/svg"
 width="512.000000pt" height="512.000000pt" viewBox="0 0 512.000000 512.000000"
 preserveAspectRatio="xMidYMid meet">
<metadata>
Created by potrace 1.14, written by Peter Selinger 2001-2017
</metadata>
<g transform="translate(0.000000,512.000000) scale(0.100000,-0.100000)"
fill="#000000" stroke="none">
<path d="M941 3864 c-59 -30 -105 -85 -122 -146 -6 -24 -9 -133 -7 -278 3
-236 3 -239 27 -264 45 -48 132 -40 161 13 6 12 10 109 10 245 0 191 2 227 16
240 13 14 50 16 246 16 l230 0 29 31 c41 43 40 99 0 140 l-29 29 -254 0 -254
0 -53 -26z"/>
<path d="M3589 3861 c-23 -23 -29 -38 -29 -71 0 -33 6 -48 29 -71 l29 -29 225
0 c124 0 232 -3 241 -6 14 -5 16 -35 16 -228 0 -190 2 -226 18 -256 34 -68
104 -80 158 -26 l34 34 0 246 c0 266 -3 284 -56 353 -14 18 -47 44 -74 58 -49
25 -52 25 -305 25 l-257 0 -29 -29z"/>
<path d="M1280 3462 c-19 -9 -40 -28 -47 -42 -10 -20 -12 -207 -10 -871 2
-812 3 -848 21 -868 31 -34 79 -45 119 -26 65 31 62 -15 62 905 0 918 3 874
-60 905 -41 19 -42 19 -85 -3z"/>
<path d="M1690 3462 c-19 -9 -40 -28 -47 -42 -10 -19 -12 -152 -10 -597 l2
-571 24 -26 c32 -34 80 -42 121 -21 61 32 61 27 58 643 -3 612 -1 587 -64 617
-40 19 -42 19 -84 -3z"/>
<path d="M2100 3462 c-19 -9 -40 -28 -47 -42 -10 -20 -12 -207 -10 -871 2
-812 3 -848 21 -868 31 -34 79 -45 120 -26 69 33 66 -9 66 905 0 911 3 872
-65 904 -41 20 -42 20 -85 -2z"/>
<path d="M2510 3462 c-19 -9 -40 -28 -47 -42 -10 -19 -13 -159 -13 -592 l0
-566 26 -31 c32 -39 80 -49 124 -26 60 31 60 29 60 631 0 606 1 597 -65 628
-41 20 -42 20 -85 -2z"/>
<path d="M2912 3460 c-18 -11 -37 -32 -42 -46 -6 -15 -10 -247 -10 -589 l0
-563 26 -31 c49 -59 132 -49 166 19 16 32 18 81 18 583 0 611 1 605 -64 632
-46 19 -55 19 -94 -5z"/>
<path d="M3322 3460 c-18 -11 -37 -32 -42 -46 -6 -15 -10 -247 -10 -589 l0
-563 26 -31 c47 -56 126 -50 164 11 19 32 20 51 20 586 0 617 1 610 -64 637
-46 19 -55 19 -94 -5z"/>
<path d="M3732 3460 c-18 -11 -37 -32 -42 -46 -16 -41 -13 -1683 3 -1713 6
-14 27 -34 46 -45 31 -18 37 -18 75 -5 80 28 76 -25 76 907 0 914 2 879 -64
907 -46 19 -55 19 -94 -5z"/>
<path d="M874 1970 c-12 -4 -31 -21 -43 -36 -22 -28 -22 -33 -19 -284 l3 -257
30 -49 c19 -30 49 -60 79 -79 l49 -30 264 -3 264 -3 29 30 c41 41 42 96 1 140
l-29 31 -230 0 c-196 0 -233 2 -246 16 -14 13 -16 49 -16 240 0 136 -4 233
-10 245 -12 22 -61 49 -87 48 -10 0 -28 -4 -39 -9z"/>
<path d="M4160 1967 c-53 -26 -60 -61 -60 -303 0 -193 -2 -223 -16 -228 -9 -3
-117 -6 -241 -6 l-225 0 -29 -29 c-23 -23 -29 -38 -29 -71 0 -33 6 -48 29 -71
l29 -29 257 0 c253 0 256 0 305 25 27 14 60 40 74 58 53 69 56 87 56 353 l0
246 -34 34 c-37 37 -72 43 -116 21z"/>
<path d="M1693 1955 c-50 -21 -65 -63 -61 -165 3 -98 15 -121 74 -140 41 -14
94 8 115 47 19 34 19 181 0 215 -23 44 -81 64 -128 43z"/>
<path d="M2513 1955 c-50 -22 -65 -63 -61 -165 3 -98 15 -121 74 -140 27 -9
40 -8 68 5 46 22 66 67 66 150 0 82 -20 128 -65 149 -39 19 -41 19 -82 1z"/>
<path d="M2923 1955 c-46 -20 -63 -60 -63 -152 0 -90 12 -119 59 -147 31 -18
37 -18 75 -5 55 19 76 61 76 152 0 84 -19 130 -65 151 -39 19 -41 19 -82 1z"/>
<path d="M3333 1955 c-46 -20 -63 -60 -63 -152 0 -90 12 -119 59 -147 31 -18
37 -18 75 -5 55 19 76 61 76 152 0 87 -17 129 -63 150 -42 20 -43 20 -84 2z"/>
</g>
</svg>
