<svg data-num="1" data-v-cfc0b0ac="" width="244px" height="142px" x="0px" y="0px" viewBox="0 0 244 142" xmlns="http://www.w3.org/2000/svg" version="1.1" style="transform: translate(0,0)"><rect x="0" y="0" width="244" height="142" style="fill:transparent;"></rect><g transform="translate(10, 10)" style="fill:#fff;"><rect x="0" y="0" width="4" height="100"></rect><rect x="6" y="0" width="2" height="100"></rect><rect x="12" y="0" width="2" height="100"></rect><rect x="22" y="0" width="2" height="100"></rect><rect x="30" y="0" width="4" height="100"></rect><rect x="36" y="0" width="2" height="100"></rect><rect x="44" y="0" width="8" height="100"></rect><rect x="56" y="0" width="2" height="100"></rect><rect x="62" y="0" width="2" height="100"></rect><rect x="66" y="0" width="2" height="100"></rect><rect x="72" y="0" width="2" height="100"></rect><rect x="76" y="0" width="4" height="100"></rect><rect x="88" y="0" width="8" height="100"></rect><rect x="98" y="0" width="6" height="100"></rect><rect x="106" y="0" width="2" height="100"></rect><rect x="110" y="0" width="2" height="100"></rect><rect x="114" y="0" width="2" height="100"></rect><rect x="120" y="0" width="8" height="100"></rect><rect x="132" y="0" width="4" height="100"></rect><rect x="140" y="0" width="2" height="100"></rect><rect x="144" y="0" width="2" height="100"></rect><rect x="154" y="0" width="2" height="100"></rect><rect x="158" y="0" width="4" height="100"></rect><rect x="166" y="0" width="2" height="100"></rect><rect x="176" y="0" width="2" height="100"></rect><rect x="180" y="0" width="6" height="100"></rect><rect x="188" y="0" width="8" height="100"></rect><rect x="198" y="0" width="4" height="100"></rect><rect x="208" y="0" width="6" height="100"></rect><rect x="216" y="0" width="2" height="100"></rect><rect x="220" y="0" width="4" height="100"></rect><text style="font: 20px monospace" text-anchor="middle" x="112" y="122">Example</text></g></svg>