<svg data-num="1" data-v-cfc0b0ac="" width="234px" height="142px" x="0px" y="0px" viewBox="0 0 234 142" xmlns="http://www.w3.org/2000/svg" version="1.1" style="transform: translate(0,0)"><rect x="0" y="0" width="234" height="142" style="fill:transparent;"></rect><g transform="translate(10, 10)" style="fill:#fff;"><text style="font: 20px monospace" text-anchor="start" x="0" y="122">1</text></g><g transform="translate(34, 10)" style="fill:#fff;"><rect x="0" y="0" width="2" height="112"></rect><rect x="4" y="0" width="2" height="112"></rect><text style="font: 20px monospace" text-anchor="middle" x="3" y="134"></text></g><g transform="translate(40, 10)" style="fill:#fff;"><rect x="4" y="0" width="4" height="100"></rect><rect x="12" y="0" width="2" height="100"></rect><rect x="18" y="0" width="2" height="100"></rect><rect x="24" y="0" width="4" height="100"></rect><rect x="30" y="0" width="2" height="100"></rect><rect x="40" y="0" width="2" height="100"></rect><rect x="44" y="0" width="2" height="100"></rect><rect x="52" y="0" width="4" height="100"></rect><rect x="58" y="0" width="6" height="100"></rect><rect x="68" y="0" width="2" height="100"></rect><rect x="78" y="0" width="2" height="100"></rect><rect x="82" y="0" width="2" height="100"></rect><text style="font: 20px monospace" text-anchor="middle" x="42" y="122">123456</text></g><g transform="translate(124, 10)" style="fill:#fff;"><rect x="2" y="0" width="2" height="112"></rect><rect x="6" y="0" width="2" height="112"></rect><text style="font: 20px monospace" text-anchor="middle" x="5" y="134"></text></g><g transform="translate(134, 10)" style="fill:#fff;"><rect x="0" y="0" width="4" height="100"></rect><rect x="8" y="0" width="4" height="100"></rect><rect x="14" y="0" width="4" height="100"></rect><rect x="20" y="0" width="4" height="100"></rect><rect x="28" y="0" width="2" height="100"></rect><rect x="38" y="0" width="2" height="100"></rect><rect x="42" y="0" width="2" height="100"></rect><rect x="46" y="0" width="6" height="100"></rect><rect x="56" y="0" width="2" height="100"></rect><rect x="62" y="0" width="6" height="100"></rect><rect x="70" y="0" width="2" height="100"></rect><rect x="78" y="0" width="2" height="100"></rect><text style="font: 20px monospace" text-anchor="middle" x="42" y="122">123457</text></g><g transform="translate(218, 10)" style="fill:#fff;"><rect x="0" y="0" width="2" height="112"></rect><rect x="4" y="0" width="2" height="112"></rect><text style="font: 20px monospace" text-anchor="middle" x="3" y="134"></text></g></svg>