<svg data-num="1" data-v-cfc0b0ac="" width="154px" height="142px" x="0px" y="0px" viewBox="0 0 154 142" xmlns="http://www.w3.org/2000/svg" version="1.1" style="transform: translate(0,0)"><rect x="0" y="0" width="154" height="142" style="fill:transparent;"></rect><g transform="translate(10, 10)" style="fill:#fff;"><rect x="0" y="0" width="2" height="112"></rect><rect x="4" y="0" width="2" height="112"></rect><text style="font: 20px monospace" text-anchor="middle" x="3" y="134"></text></g><g transform="translate(16, 10)" style="fill:#fff;"><rect x="4" y="0" width="4" height="100"></rect><rect x="12" y="0" width="2" height="100"></rect><rect x="18" y="0" width="2" height="100"></rect><rect x="24" y="0" width="4" height="100"></rect><rect x="30" y="0" width="8" height="100"></rect><rect x="40" y="0" width="2" height="100"></rect><rect x="44" y="0" width="2" height="100"></rect><rect x="52" y="0" width="4" height="100"></rect><text style="font: 20px monospace" text-anchor="middle" x="28" y="122">1234</text></g><g transform="translate(72, 10)" style="fill:#fff;"><rect x="2" y="0" width="2" height="112"></rect><rect x="6" y="0" width="2" height="112"></rect><text style="font: 20px monospace" text-anchor="middle" x="5" y="134"></text></g><g transform="translate(82, 10)" style="fill:#fff;"><rect x="0" y="0" width="2" height="100"></rect><rect x="6" y="0" width="6" height="100"></rect><rect x="14" y="0" width="2" height="100"></rect><rect x="18" y="0" width="2" height="100"></rect><rect x="28" y="0" width="2" height="100"></rect><rect x="36" y="0" width="2" height="100"></rect><rect x="42" y="0" width="6" height="100"></rect><rect x="52" y="0" width="2" height="100"></rect><text style="font: 20px monospace" text-anchor="middle" x="28" y="122">5670</text></g><g transform="translate(138, 10)" style="fill:#fff;"><rect x="0" y="0" width="2" height="112"></rect><rect x="4" y="0" width="2" height="112"></rect><text style="font: 20px monospace" text-anchor="middle" x="3" y="134"></text></g></svg>