<svg data-num="1" data-v-cfc0b0ac="" width="250px" height="142px" x="0px" y="0px" viewBox="0 0 250 142" xmlns="http://www.w3.org/2000/svg" version="1.1" style="transform: translate(0,0)"><rect x="0" y="0" width="250" height="142" style="fill:transparent;"></rect><g transform="translate(10, 10)" style="fill:#fff;"><rect x="0" y="0" width="4" height="100"></rect><rect x="6" y="0" width="2" height="100"></rect><rect x="12" y="0" width="2" height="100"></rect><rect x="18" y="0" width="2" height="100"></rect><rect x="24" y="0" width="4" height="100"></rect><rect x="30" y="0" width="2" height="100"></rect><rect x="36" y="0" width="2" height="100"></rect><rect x="42" y="0" width="4" height="100"></rect><rect x="48" y="0" width="2" height="100"></rect><rect x="54" y="0" width="2" height="100"></rect><rect x="60" y="0" width="2" height="100"></rect><rect x="66" y="0" width="4" height="100"></rect><rect x="72" y="0" width="4" height="100"></rect><rect x="78" y="0" width="2" height="100"></rect><rect x="84" y="0" width="4" height="100"></rect><rect x="90" y="0" width="2" height="100"></rect><rect x="96" y="0" width="2" height="100"></rect><rect x="102" y="0" width="2" height="100"></rect><rect x="108" y="0" width="4" height="100"></rect><rect x="114" y="0" width="2" height="100"></rect><rect x="120" y="0" width="4" height="100"></rect><rect x="126" y="0" width="2" height="100"></rect><rect x="132" y="0" width="4" height="100"></rect><rect x="138" y="0" width="4" height="100"></rect><rect x="144" y="0" width="2" height="100"></rect><rect x="150" y="0" width="2" height="100"></rect><rect x="156" y="0" width="4" height="100"></rect><rect x="162" y="0" width="4" height="100"></rect><rect x="168" y="0" width="4" height="100"></rect><rect x="174" y="0" width="4" height="100"></rect><rect x="180" y="0" width="2" height="100"></rect><rect x="186" y="0" width="2" height="100"></rect><rect x="192" y="0" width="2" height="100"></rect><rect x="198" y="0" width="4" height="100"></rect><rect x="204" y="0" width="2" height="100"></rect><rect x="210" y="0" width="2" height="100"></rect><rect x="216" y="0" width="4" height="100"></rect><rect x="222" y="0" width="2" height="100"></rect><rect x="228" y="0" width="2" height="100"></rect><text style="font: 20px monospace" text-anchor="middle" x="115" y="122">123456789</text></g></svg>