<svg data-num="1" data-v-cfc0b0ac="" width="136px" height="142px" x="0px" y="0px" viewBox="0 0 136 142" xmlns="http://www.w3.org/2000/svg" version="1.1" style="transform: translate(0,0)"><rect x="0" y="0" width="136" height="142" style="fill:transparent;"></rect><g transform="translate(10, 10)" style="fill:#fff;"><rect x="0" y="0" width="6" height="100"></rect><rect x="10" y="0" width="6" height="100"></rect><rect x="20" y="0" width="6" height="100"></rect><rect x="30" y="0" width="2" height="100"></rect><rect x="36" y="0" width="2" height="100"></rect><rect x="42" y="0" width="2" height="100"></rect><rect x="48" y="0" width="6" height="100"></rect><rect x="58" y="0" width="2" height="100"></rect><rect x="64" y="0" width="2" height="100"></rect><rect x="70" y="0" width="6" height="100"></rect><rect x="80" y="0" width="2" height="100"></rect><rect x="86" y="0" width="2" height="100"></rect><rect x="92" y="0" width="2" height="100"></rect><rect x="98" y="0" width="2" height="100"></rect><rect x="104" y="0" width="2" height="100"></rect><rect x="110" y="0" width="6" height="100"></rect><text style="font: 20px monospace" text-anchor="middle" x="58" y="122">123456</text></g></svg>